PathFileType	4	(X/Y/Z)	C:\Users\Basilio\Documents\Thesis Gigler\squatting_fais\c3dfiles\047\SLS_pre_back2\markers_experimental.trc
DataRate	CameraRate	NumFrames	NumMarkers	Units	OrigDataRate	OrigDataStartFrame	OrigNumFrames
200.000000	200.000000	4	62	mm	200.000000	647	1295
Frame#	Time	FHD			LBHD			RBHD			C7			T10			CLAV			LSHO			LUUPA			LMUPA			LDUPA			LLEP			LMEP			LRAD			LUL			LRFIN			RSHO			RUPA1			RMUPA			RDUPA			RLEP			RMEP			RUL			RUFIN			LASI			RASI			USACR			LSACR			RSACR			LTHI1			LTHI2			LTHI3			LTHI4			LLFC			LMFC			LTIB1			LTIB2			LTIB3			LTIB4			LLMAL			LMMAL			LMT1			LMT2			LMT5			RTHI			RTHI2			RTHI3			RTHI4			RLFC			RMFC			RTIB1			RTIB2			RTIB3			RTIB4			RLMAL			RHEE			RMT1			RMT2			RMT5			RMMAL			RRAD			*60			*61			
		X1	Y1	Z1	X2	Y2	Z2	X3	Y3	Z3	X4	Y4	Z4	X5	Y5	Z5	X6	Y6	Z6	X7	Y7	Z7	X8	Y8	Z8	X9	Y9	Z9	X10	Y10	Z10	X11	Y11	Z11	X12	Y12	Z12	X13	Y13	Z13	X14	Y14	Z14	X15	Y15	Z15	X16	Y16	Z16	X17	Y17	Z17	X18	Y18	Z18	X19	Y19	Z19	X20	Y20	Z20	X21	Y21	Z21	X22	Y22	Z22	X23	Y23	Z23	X24	Y24	Z24	X25	Y25	Z25	X26	Y26	Z26	X27	Y27	Z27	X28	Y28	Z28	X29	Y29	Z29	X30	Y30	Z30	X31	Y31	Z31	X32	Y32	Z32	X33	Y33	Z33	X34	Y34	Z34	X35	Y35	Z35	X36	Y36	Z36	X37	Y37	Z37	X38	Y38	Z38	X39	Y39	Z39	X40	Y40	Z40	X41	Y41	Z41	X42	Y42	Z42	X43	Y43	Z43	X44	Y44	Z44	X45	Y45	Z45	X46	Y46	Z46	X47	Y47	Z47	X48	Y48	Z48	X49	Y49	Z49	X50	Y50	Z50	X51	Y51	Z51	X52	Y52	Z52	X53	Y53	Z53	X54	Y54	Z54	X55	Y55	Z55	X56	Y56	Z56	X57	Y57	Z57	X58	Y58	Z58	X59	Y59	Z59	X60	Y60	Z60	X61	Y61	Z61	X62	Y62	Z62	

648	3.235	107.55126953125	1355.223754882813	-1108.422973632813	-72.64993286132814	1335.664794921875	-1129.102661132813	-45.1680030822754	1338.681396484375	-983.052673339844	-123.8657608032227	1207.890502929688	-1057.711791992188	-331.8698425292969	992.568786621094	-1018.981018066406	-27.11894226074219	1081.251708984375	-1084.1376953125	-73.44674682617189	1129.5654296875	-1236.875610351563	-72.14945220947267	967.3379516601565	-1332.510131835938	-21.39673614501953	974.670593261719	-1330.23046875	-26.05328941345216	915.0573730468752	-1340.606811523438	36.21760940551759	875.5107421875002	-1343.451049804688	6.812791824340822	835.8814086914065	-1267.374145507813	214.8706665039063	940.3542480468752	-1172.536254882813	242.1400146484376	868.6873168945315	-1172.825073242188	302.9123229980469	940.0185546875002	-1163.42041015625	-25.06196975708009	1130.590698242188	-930.2832641601565	13.2962875366211	972.1192016601565	-824.5940551757815	56.83493804931642	977.2534179687502	-846.4585571289065	59.13887786865236	919.5368652343752	-828.713317871094	121.9662017822266	880.0567626953127	-845.4556274414065	71.5691375732422	827.8640136718752	-900.176940917969	287.5145568847657	876.8357543945315	-1048.4072265625	273.5297851562501	961.9665527343752	-1081.038330078125	-307.8640136718751	724.8099975585939	-1102.053100585938	-307.0833740234376	729.7435913085939	-874.3984985351565	-433.5187377929689	882.0303955078127	-993.9802246093752	-456.741912841797	859.156677246094	-1021.683410644531	-452.6873474121095	858.345642089844	-963.0911865234377	-350.0504455566407	641.9172973632814	-1184.601196289063	-269.8609008789063	618.8980712890626	-1183.004760742188	-239.8173522949219	654.1801147460939	-1166.600830078125	-247.9143676757813	563.0610351562501	-1187.0478515625	-142.3831634521485	436.1559448242189	-1158.840698242188	-110.3113479614258	448.4530639648439	-1033.972778320313	-175.6743774414063	288.2950439453126	-1037.723754882813	-203.5768585205079	239.3135681152344	-1102.757934570313	-192.2690887451172	236.8169403076172	-1058.39697265625	-247.8954162597657	187.1000061035157	-1022.552490234375	-340.9209594726563	121.0359954833985	-1063.380249023438	-316.0188903808594	142.4040069580078	-975.6090087890627	-210.333969116211	62.41333007812501	-990.9406738281252	-207.8908233642579	60.66201782226564	-1035.82421875	-258.2555541992188	50.35451507568361	-1079.530517578125	-403.2476196289064	578.9636230468751	-784.6246337890627	-362.9774475097657	525.0332031250001	-784.247497558594	-333.4694824218751	526.0482177734376	-796.845886230469	-388.2879943847657	444.5738830566407	-783.2404785156252	-386.7884826660157	314.9724731445313	-807.586364746094	-391.5471801757814	298.6099853515626	-939.8618164062502	-490.6761169433595	251.6905822753907	-819.2080078125002	-572.6091308593751	315.4073181152344	-777.6492919921877	-570.9948120117189	269.3357849121094	-789.3316650390627	-621.5778198242189	256.5833129882813	-818.8206176757815	-771.747497558594	318.4119567871094	-782.387634277344	-791.1953125000002	376.5236511230469	-837.4904785156252	-854.611755371094	177.7705993652344	-850.9185791015627	-853.2888183593752	171.5259246826172	-806.7022094726565	-872.6954345703127	226.5614166259766	-755.4820556640626	-761.0306396484376	286.0662231445313	-868.6890869140627	nan	nan	nan	nan	nan	nan	nan	nan	nan	
649	3.24	108.4741821289063	1354.64892578125	-1109.208984375	-71.98939514160158	1334.940795898438	-1129.545654296875	-44.67675399780274	1337.890747070313	-983.3068847656252	-123.270736694336	1207.196533203125	-1058.0556640625	-331.5279541015626	992.0877075195315	-1019.063354492188	-26.88960075378419	1080.132202148438	-1084.193237304688	-73.23265075683595	1128.811645507813	-1237.039672851563	-71.78269958496095	966.4890136718752	-1332.611572265625	-21.43186759948731	973.9367675781252	-1330.396606445313	-25.8842887878418	914.289489746094	-1340.660766601563	36.64635848999024	874.473327636719	-1343.543090820313	7.04564428329468	835.235046386719	-1268.1943359375	215.2957153320313	939.1780395507815	-1172.646606445313	242.4851989746094	867.6621093750002	-1172.867065429688	303.3080444335938	938.8235473632815	-1163.575805664063	-24.75377273559571	1129.89990234375	-930.4156494140627	13.67135906219483	971.485778808594	-824.8912353515627	57.00874710083009	976.469177246094	-846.3077392578127	59.2263870239258	918.608093261719	-828.5682373046877	121.9714965820313	879.3277587890627	-845.4358520507815	71.80868530273439	827.1406250000002	-900.366394042969	287.8324890136719	875.7412109375002	-1048.444458007813	274.0287475585938	960.7017822265627	-1081.285278320313	-307.9157714843751	724.2362670898439	-1102.0478515625	-307.0016784667969	729.2765502929689	-874.4346313476565	-433.1586303710939	881.5872192382815	-993.9251708984377	-456.5310058593751	858.8784179687502	-1021.600708007813	-452.5108032226564	858.0313110351565	-963.0100708007815	-349.9891357421876	641.6135864257814	-1184.640869140625	-269.9477233886719	618.6501464843751	-1183.107055664063	-239.9936065673829	653.9357299804689	-1166.680786132813	-247.9125213623047	562.7977294921876	-1187.199096679688	-142.3074340820313	436.0946655273439	-1159.058349609375	-109.7483596801758	448.0010070800782	-1035.423828125	-175.4483032226563	288.1734313964844	-1038.015625	-203.7922821044922	239.1831054687501	-1102.85595703125	-192.1806030273438	236.6463317871094	-1058.663452148438	-247.8022155761719	187.0587005615235	-1022.560913085938	-340.8731994628907	121.041244506836	-1063.400268554688	-315.9908752441407	142.4201049804688	-975.5963134765627	-210.3554687500001	62.37107849121095	-990.9531250000002	-207.556381225586	61.3246192932129	-1035.626342773438	-258.2730407714844	50.37380599975587	-1079.563842773438	-403.2420959472657	578.6257324218751	-784.478454589844	-363.4253540039063	524.5343627929689	-783.3134765625002	-333.4602050781251	525.5283203125001	-796.800720214844	-388.497039794922	444.077850341797	-783.0427856445315	-387.097625732422	314.5735168457032	-807.7476196289065	-391.600555419922	298.3950805664063	-939.961608886719	-491.3117980957032	251.3448028564454	-819.0555419921877	-572.8641967773439	315.1198425292969	-777.7095947265627	-571.4033813476564	269.0472717285157	-789.2407226562502	-621.9995727539064	256.4241943359376	-818.886901855469	-772.3781738281252	318.4118347167969	-782.0140380859377	-791.4508056640627	376.7459716796876	-837.323669433594	-855.3005371093752	177.9751586914063	-850.6460571289065	-853.7017211914065	171.6408386230469	-806.9592895507815	-873.353210449219	226.7963867187501	-755.0758056640626	-761.5167236328126	286.0615234375001	-868.3438720703127	nan	nan	nan	nan	nan	nan	nan	nan	nan	
650	3.245	109.2925872802735	1353.779541015625	-1110.072998046875	-71.7443084716797	1334.19921875	-1129.909423828125	-44.22996902465821	1337.028198242188	-983.643493652344	-122.6984252929688	1206.0517578125	-1058.299682617188	-331.1406860351563	991.5381469726565	-1019.130676269531	-26.46080207824708	1079.41845703125	-1084.401977539063	-72.8340530395508	1127.913696289063	-1237.292358398438	-71.23355102539064	965.5002441406252	-1332.732421875	-21.06297683715821	973.0335693359377	-1330.578979492188	-25.44434928894044	913.242858886719	-1340.765747070313	36.70528030395509	873.6604003906252	-1343.57763671875	7.173925399780275	834.1625976562502	-1267.877563476563	215.5991668701172	938.161315917969	-1172.729858398438	242.5980377197266	866.5144042968752	-1172.841064453125	303.4995727539063	937.5332031250002	-1163.489624023438	-24.41170310974122	1129.2197265625	-930.5769653320315	13.8911943435669	970.5132446289065	-825.0313110351565	57.20289230346681	975.551940917969	-846.489929199219	59.68101119995119	917.9212646484377	-828.967712402344	122.2939987182617	878.5508422851565	-845.4561767578127	71.9188690185547	826.1180419921877	-900.4201660156252	288.2129516601563	874.7716064453127	-1048.344970703125	274.4337463378907	959.883728027344	-1081.305419921875	-308.5913391113282	723.6697998046876	-1102.135009765625	-306.8598632812501	728.8793334960939	-874.4029541015627	-432.9913940429689	881.1771240234377	-993.8059082031252	-456.7393188476564	859.190124511719	-1021.421569824219	-452.4413452148439	858.036071777344	-962.9207763671877	-350.0172119140626	641.2705688476564	-1184.643432617188	-270.0087890625001	618.4699707031251	-1183.17431640625	-240.1399536132813	653.6763916015626	-1166.672241210938	-247.9684295654297	562.5506591796876	-1187.239868164063	-142.2938232421875	435.8654174804689	-1159.26220703125	-109.6584777832032	448.2373962402345	-1034.6669921875	-175.385971069336	288.0037841796876	-1038.078857421875	-199.230209350586	240.7934112548829	-1105.725952148438	-192.0590362548829	236.4891815185547	-1058.68310546875	-247.6217193603516	186.9719696044922	-1022.718994140625	-340.9203796386719	121.0921401977539	-1063.280639648438	-315.9408264160157	142.4416656494141	-975.5481567382815	-210.3370208740235	62.35069274902345	-990.9499511718752	-207.5326538085938	61.27978515625001	-1035.596435546875	-258.3677673339844	50.31499481201173	-1079.5830078125	-403.2623596191407	578.1144409179689	-784.3161621093752	-363.3568115234376	524.2106933593751	-783.2708129882815	-333.5825805664063	524.9137573242189	-796.658630371094	-388.6401672363282	443.7393798828126	-782.8648071289065	-387.6483459472657	314.2623901367188	-807.3433227539065	-392.3648376464845	297.8122558593751	-939.5439453125002	-491.8847961425782	250.9399414062501	-819.2308349609377	-573.1088256835939	315.1005249023438	-777.5112304687502	-572.0105590820314	268.7500305175782	-788.8279418945315	-622.7279052734376	256.3091430664063	-818.4612426757815	-772.687438964844	318.6002502441407	-781.5674438476565	-791.9490356445315	376.8994445800782	-837.0498046875002	-856.2967529296877	178.0975494384766	-850.0172119140627	-854.6162719726565	171.8128509521485	-805.443054199219	-873.9307861328127	227.1148834228516	-754.6250000000001	-762.0725708007814	286.1539611816407	-867.9907226562502	nan	nan	nan	-153.7612762451172	713.0566406250001	-2479.72705078125	nan	nan	nan	
651	3.25	109.0945434570313	1352.496337890625	-1109.442993164063	-71.26705169677736	1333.249877929688	-1130.179443359375	-43.86064529418946	1336.3623046875	-984.1901855468752	-122.2313690185547	1205.416381835938	-1058.575561523438	-330.6411437988282	991.059997558594	-1019.196228027344	-26.2877540588379	1078.69921875	-1084.6181640625	-72.0221405029297	1126.93798828125	-1237.478271484375	-70.94049072265626	964.6342773437502	-1332.918579101563	-20.59437370300293	972.3269042968752	-1330.857055664063	-25.07506752014161	912.2957763671877	-1340.951049804688	37.01737213134766	872.603210449219	-1343.680786132813	7.416013240814211	833.2596435546877	-1267.525268554688	216.404281616211	937.2351684570315	-1173.170043945313	243.1014556884766	865.419860839844	-1172.979248046875	303.8859863281251	936.506774902344	-1163.688842773438	-23.93963050842286	1128.456298828125	-930.9340820312502	14.09655189514161	969.994079589844	-824.9839477539065	57.25694274902345	974.5743408203127	-846.5447998046877	59.63720703125001	917.1628417968752	-828.9904785156252	122.4742965698242	877.6181640625002	-845.6765747070315	71.97555541992189	825.3977050781252	-900.5442504882815	288.1384582519532	873.4314575195315	-1048.591552734375	274.5101928710938	958.396179199219	-1081.273193359375	-307.5144348144532	723.5855712890626	-1101.85546875	-306.7588195800782	728.4213256835939	-874.2061767578127	-432.633514404297	881.0319824218752	-993.7174072265627	-456.1629028320314	858.331970214844	-1021.361999511719	-452.0818786621095	857.3063964843752	-962.8931274414065	-350.1067504882813	640.9324340820314	-1184.634033203125	-270.1372985839844	618.1928710937501	-1183.2490234375	-239.8878021240235	653.4745483398439	-1166.938110351563	-247.9352111816407	562.2059936523439	-1187.4326171875	-142.2008972167969	435.741668701172	-1159.465576171875	-109.319450378418	448.0422668457032	-1035.10888671875	-175.3914947509766	287.8786621093751	-1038.18798828125	-199.2911071777344	240.7097473144532	-1105.916259765625	-192.0303802490235	236.3102264404297	-1058.956420898438	-247.6313781738282	186.9035339355469	-1022.741394042969	-340.8596191406251	121.1004104614258	-1063.257690429688	-315.9579162597657	142.3925476074219	-975.509704589844	-210.3244018554688	62.36205291748048	-990.9588623046877	-207.9406280517579	60.60146331787111	-1035.8359375	-258.2891235351563	50.37392807006837	-1079.562622070313	-403.2873840332032	577.6942749023439	-784.1994628906252	-363.3826904296876	523.8245239257814	-783.3863525390627	-333.6287536621094	524.3649291992189	-796.8413085937502	-388.8424377441407	443.6203613281251	-782.773376464844	-388.2459411621095	313.5942993164063	-807.1074218750002	-393.5879821777345	297.2293090820313	-939.237976074219	-492.3345947265626	250.776351928711	-818.6001586914065	-573.6932373046876	314.8464050292969	-777.195495605469	-572.6127929687501	268.7243041992188	-788.3848876953127	-623.0302734375001	256.0192260742188	-818.6592407226565	-773.023132324219	318.7300720214844	-781.4855957031252	-792.2059326171877	376.9751892089844	-836.9050292968752	-856.3457031250002	177.8883514404297	-850.074645996094	-855.076843261719	172.2742767333985	-805.2241821289065	-874.246520996094	227.2254638671876	-754.3959350585939	-762.6491088867189	286.2366943359376	-867.7168579101565	nan	nan	nan	nan	nan	nan	nan	nan	nan	
